<svg width="25" height="30" viewBox="0 0 25 30" fill="none" xmlns="http://www.w3.org/2000/svg">
<path id="Vector" d="M24.476 23.3791C24.0272 24.4272 23.4959 25.392 22.8804 26.279C22.0413 27.4882 21.3542 28.3252 20.8248 28.7901C20.0041 29.553 19.1247 29.9437 18.183 29.9659C17.507 29.9659 16.6917 29.7715 15.7427 29.3771C14.7906 28.9845 13.9156 28.7901 13.1156 28.7901C12.2765 28.7901 11.3766 28.9845 10.4141 29.3771C9.45003 29.7715 8.67343 29.9771 8.07965 29.9974C7.17665 30.0363 6.27658 29.6345 5.37815 28.7901C4.8047 28.2845 4.08747 27.4179 3.22822 26.1901C2.30635 24.879 1.54845 23.3587 0.954675 21.6254C0.318775 19.7533 0 17.9404 0 16.1853C0 14.1748 0.4298 12.4408 1.29068 10.9876C1.96725 9.82047 2.86733 8.89975 3.99385 8.22386C5.12035 7.54795 6.33758 7.2035 7.6484 7.18149C8.36565 7.18149 9.3062 7.40573 10.4751 7.84646C11.6406 8.28868 12.389 8.51292 12.7171 8.51292C12.9624 8.51292 13.7938 8.2507 15.2032 7.72795C16.536 7.24315 17.6609 7.04238 18.5824 7.12148C21.0795 7.32517 22.9555 8.32014 24.2031 10.1127C21.9698 11.4804 20.8651 13.3961 20.8871 15.8536C20.9072 17.7678 21.5943 19.3607 22.9445 20.6255C23.5564 21.2125 24.2397 21.6662 25 21.9884C24.8351 22.4717 24.6611 22.9347 24.476 23.3791V23.3791ZM18.7491 0.600178C18.7491 2.10051 18.2068 3.50138 17.1259 4.79801C15.8215 6.33946 14.2438 7.23016 12.5328 7.08961C12.5099 6.90099 12.4984 6.71113 12.4984 6.5211C12.4984 5.08078 13.1187 3.53933 14.2203 2.27901C14.7703 1.64088 15.4698 1.1103 16.318 0.68703C17.1644 0.270081 17.965 0.0394964 18.718 0C18.74 0.200565 18.7491 0.401155 18.7491 0.600153V0.600178Z" fill="black"/>
</svg>
