<svg width="35" height="35" viewBox="0 0 35 35" fill="none" xmlns="http://www.w3.org/2000/svg">
<path id="websiteQRCode_noFrame 1 (Traced)" fill-rule="evenodd" clip-rule="evenodd" d="M0 5.83333V11.6667H5.83333H11.6667V5.83333V0H5.83333H0V5.83333ZM13.3333 1.66667V3.33333H14.1667H15V5V6.66667H14.1667H13.3333V13.3333V20H10.8333H8.33333V20.8333V21.6667H10.8333H13.3333V22.5V23.3333H14.1667H15V24.1667V25H14.1667H13.3333V25.8333V26.6667H14.1667H15V28.3333V30H14.1667H13.3333V32.5V35H15.8333H18.3333V34.1667V33.3333H17.5H16.6667V32.5V31.6667H15.8333H15V30.8333V30H16.6667H18.3333V29.1667V28.3333H22.5H26.6667V29.1667V30H25H23.3333V30.8333V31.6667H24.1667H25V32.5V33.3333H24.1667H23.3333V34.1667V35H24.1667H25V34.1667V33.3333H26.6667H28.3333V34.1667V35H29.1667H30V33.3333V31.6667H32.5H35V30.8333V30H33.3333H31.6667V29.1667V28.3333H32.5H33.3333V27.5V26.6667H32.5H31.6667V27.5V28.3333H30.8333H30V26.6667V25H30.8333H31.6667V23.3333V21.6667H32.5H33.3333V20.8333V20H32.5H31.6667V20.8333V21.6667H30.8333H30V20V18.3333H30.8333H31.6667V17.5V16.6667H30.8333H30V15.8333V15H29.1667H28.3333V14.1667V13.3333H24.1667H20V12.5V11.6667H20.8333H21.6667V10.8333V10H20.8333H20V10.8333V11.6667H19.1667H18.3333V10V8.33333H17.5H16.6667V10V11.6667H15.8333H15V9.16667V6.66667H15.8333H16.6667V5.83333V5H17.5H18.3333V5.83333V6.66667H19.1667H20V7.5V8.33333H20.8333H21.6667V6.66667V5H20.8333H20V4.16667V3.33333H20.8333H21.6667V1.66667V0H17.5H13.3333V1.66667ZM23.3333 5.83333V11.6667H29.1667H35V5.83333V0H29.1667H23.3333V5.83333ZM10 5.83333V10H5.83333H1.66667V5.83333V1.66667H5.83333H10V5.83333ZM18.3333 2.5V3.33333H17.5H16.6667V2.5V1.66667H17.5H18.3333V2.5ZM33.3333 5.83333V10H29.1667H25V5.83333V1.66667H29.1667H33.3333V5.83333ZM3.33333 5.83333V8.33333H5.83333H8.33333V5.83333V3.33333H5.83333H3.33333V5.83333ZM26.6667 5.83333V8.33333H29.1667H31.6667V5.83333V3.33333H29.1667H26.6667V5.83333ZM0 15V16.6667H0.833333H1.66667V15.8333V15H3.33333H5V17.5V20H3.33333H1.66667V19.1667V18.3333H0.833333H0V20V21.6667H3.33333H6.66667V20V18.3333H9.16667H11.6667V17.5V16.6667H10H8.33333V15.8333V15H10H11.6667V14.1667V13.3333H10H8.33333V14.1667V15H6.66667H5V14.1667V13.3333H2.5H0V15ZM31.6667 14.1667V15H32.5H33.3333V16.6667V18.3333H34.1667H35V15.8333V13.3333H33.3333H31.6667V14.1667ZM23.3333 16.6667V18.3333H25H26.6667V19.1667V20H27.5H28.3333V20.8333V21.6667H27.5H26.6667V20.8333V20H24.1667H21.6667V21.6667V23.3333H20.8333H20V22.5V21.6667H19.1667H18.3333V22.5V23.3333H16.6667H15V22.5V21.6667H15.8333H16.6667V20.8333V20H15.8333H15V18.3333V16.6667H16.6667H18.3333V15.8333V15H20.8333H23.3333V16.6667ZM26.6667 15.8333V16.6667H25.8333H25V15.8333V15H25.8333H26.6667V15.8333ZM30 17.5V18.3333H29.1667H28.3333V17.5V16.6667H29.1667H30V17.5ZM20 19.1667V20H20.8333H21.6667V19.1667V18.3333H20.8333H20V19.1667ZM0 29.1667V35H5.83333H11.6667V29.1667V23.3333H5.83333H0V29.1667ZM25 24.1667V25H26.6667H28.3333V25.8333V26.6667H26.6667H25V25.8333V25H24.1667H23.3333V24.1667V23.3333H24.1667H25V24.1667ZM33.3333 24.1667V25H34.1667H35V24.1667V23.3333H34.1667H33.3333V24.1667ZM10 29.1667V33.3333H5.83333H1.66667V29.1667V25H5.83333H10V29.1667ZM16.6667 25.8333V26.6667H15.8333H15V25.8333V25H15.8333H16.6667V25.8333ZM21.6667 25.8333V26.6667H20.8333H20V25.8333V25H20.8333H21.6667V25.8333ZM3.33333 29.1667V31.6667H5.83333H8.33333V29.1667V26.6667H5.83333H3.33333V29.1667ZM20 32.5V33.3333H20.8333H21.6667V32.5V31.6667H20.8333H20V32.5ZM33.3333 34.1667V35H34.1667H35V34.1667V33.3333H34.1667H33.3333V34.1667Z" fill="#69573A"/>
</svg>
