<svg width="86" height="88" viewBox="0 0 86 88" fill="none" xmlns="http://www.w3.org/2000/svg">
<path d="M39.0648 1.79313C41.4111 0.0689577 44.5888 0.0689577 46.9352 1.79313C48.8529 3.20234 51.3078 3.63999 53.5884 2.97801C56.3749 2.16916 59.3623 3.26586 60.9852 5.69937C62.3091 7.68463 64.4666 8.94404 66.8339 9.11001C69.7262 9.31278 72.1643 11.3763 72.8661 14.2263C73.4377 16.5479 75.0376 18.4756 77.205 19.4491C79.856 20.6399 81.4494 23.4236 81.1439 26.3452C80.8952 28.7238 81.7458 31.0867 83.4516 32.7491C85.5417 34.7861 86.0956 37.9543 84.8199 40.5931C83.7805 42.7432 83.7805 45.2568 84.8199 47.4069C86.0956 50.0457 85.5417 53.2139 83.4516 55.2509C81.7458 56.9133 80.8952 59.2762 81.1439 61.6548C81.4494 64.5764 79.856 67.3601 77.205 68.5509C75.0376 69.5244 73.4377 71.4521 72.8661 73.7737C72.1643 76.6237 69.7262 78.6872 66.8339 78.89C64.4666 79.056 62.3091 80.3154 60.9852 82.3006C59.3623 84.7341 56.3749 85.8308 53.5884 85.022C51.3078 84.36 48.8529 84.7977 46.9352 86.2069C44.5888 87.931 41.4111 87.931 39.0648 86.2069C37.1471 84.7977 34.6922 84.36 32.4116 85.022C29.6251 85.8308 26.6377 84.7341 25.0148 82.3006C23.6909 80.3154 21.5334 79.056 19.166 78.89C16.2738 78.6872 13.8357 76.6237 13.1339 73.7737C12.5623 71.4521 10.9624 69.5244 8.79495 68.5509C6.14399 67.3601 4.55061 64.5764 4.8561 61.6548C5.10483 59.2762 4.25423 56.9133 2.5484 55.2509C0.458262 53.2139 -0.095563 50.0457 1.18008 47.4069C2.21945 45.2568 2.21945 42.7432 1.18008 40.5931C-0.0955633 37.9543 0.458263 34.7861 2.5484 32.7491C4.25423 31.0867 5.10483 28.7238 4.8561 26.3452C4.55061 23.4236 6.14399 20.6399 8.79495 19.4491C10.9624 18.4756 12.5623 16.5479 13.1339 14.2263C13.8357 11.3763 16.2738 9.31278 19.166 9.11001C21.5334 8.94404 23.6909 7.68463 25.0148 5.69937C26.6377 3.26586 29.6251 2.16916 32.4116 2.97801C34.6922 3.63999 37.1471 3.20234 39.0648 1.79313Z" fill="#F8F5F0" stroke="#E7D4B5"/>
<path d="M43.0128 58.6666C42.4575 58.5952 41.8785 58.6016 41.3534 58.4352C40.3353 58.1132 39.7599 57.3649 39.6373 56.2918C39.6117 56.065 39.5979 55.8354 39.6053 55.6076C39.6254 54.9974 39.5888 54.4477 39.1598 53.9116C38.8826 53.5658 38.7682 53.0115 38.7573 52.5468C38.7262 51.2487 38.2935 50.1775 37.3961 49.2188C33.4168 44.9706 35.4165 37.9927 41.0149 36.509C45.4497 35.3335 49.8763 38.1885 50.6292 42.745C51.0189 45.1033 50.4362 47.2402 48.8317 49.0176C47.8638 50.0888 47.2756 51.2423 47.3131 52.7069C47.3278 53.2832 47.068 53.7899 46.7149 54.2537C46.5804 54.4303 46.4944 54.6764 46.4725 54.8986C46.4139 55.4878 46.4825 56.0988 46.3554 56.6696C46.1029 57.8085 45.1003 58.5632 43.9358 58.5998C43.6312 58.609 43.3266 58.6016 43.021 58.6016C43.0183 58.6227 43.0155 58.6446 43.0128 58.6666ZM43 53.4698C43.5333 53.4698 44.0666 53.4698 44.5999 53.4698C44.6155 53.4698 44.6301 53.4698 44.6457 53.4698C45.2512 53.4432 45.5906 53.124 45.5961 52.5358C45.6117 50.7968 46.2264 49.3231 47.4138 48.0415C49.021 46.3062 49.451 44.2443 48.6908 42.0232C47.916 39.7573 46.2575 38.3879 43.891 38.0495C41.4961 37.7073 39.4973 38.5352 38.0968 40.545C36.4713 42.8758 36.6954 45.9494 38.6466 48.0278C39.8468 49.3066 40.4551 50.7767 40.4688 52.5166C40.4734 53.1148 40.8018 53.4487 41.4 53.467C41.9324 53.4817 42.4667 53.4698 43 53.4698ZM44.7591 55.2206C43.5809 55.2206 42.4548 55.2206 41.3058 55.2206C41.3058 55.464 41.3031 55.6597 41.3067 55.8564C41.3195 56.5608 41.637 56.8718 42.3487 56.8755C42.8353 56.8782 43.322 56.881 43.8096 56.8746C44.4051 56.8663 44.7316 56.5462 44.7582 55.947C44.7673 55.721 44.7591 55.4942 44.7591 55.2206Z" fill="#B0905B"/>
<path d="M36.693 36.754C36.5173 36.9763 36.3664 37.2617 36.134 37.4373C35.8568 37.6468 35.4955 37.602 35.2476 37.3632C34.3731 36.5198 33.5086 35.6645 32.6689 34.7872C32.3707 34.4753 32.4329 33.9603 32.7228 33.6666C33.0165 33.3703 33.5278 33.298 33.8416 33.5962C34.7216 34.4332 35.5724 35.3013 36.4203 36.1713C36.5374 36.293 36.574 36.4924 36.693 36.754Z" fill="#B0905B"/>
<path d="M53.6974 34.1946C53.5218 34.5048 53.4376 34.7572 53.2711 34.931C52.5238 35.7086 51.7572 36.4688 50.9869 37.2235C50.5543 37.647 50.063 37.6571 49.6989 37.2793C49.3468 36.9143 49.3596 36.4395 49.7666 36.0233C50.5314 35.2411 51.3089 34.4718 52.0856 33.7007C52.3719 33.4162 52.7378 33.3009 53.0809 33.5058C53.3233 33.6522 53.4788 33.9422 53.6974 34.1946Z" fill="#B0905B"/>
<path d="M43.8773 31.9378C43.8773 32.5013 43.8855 33.0639 43.8745 33.6274C43.8645 34.1571 43.5214 34.5248 43.0503 34.5367C42.5673 34.5495 42.195 34.1671 42.1905 33.6174C42.1813 32.4913 42.1813 31.3652 42.1905 30.2382C42.195 29.7058 42.5399 29.3436 43.0137 29.3335C43.5068 29.3225 43.8636 29.6921 43.8736 30.2483C43.8855 30.8108 43.8773 31.3743 43.8773 31.9378Z" fill="#B0905B"/>
<path d="M31.0093 44.8124C30.4614 44.8124 29.9134 44.8179 29.3655 44.8115C28.7699 44.8041 28.3912 44.4638 28.3985 43.9561C28.4049 43.4658 28.7754 43.1283 29.3426 43.1246C30.454 43.1173 31.5646 43.1164 32.676 43.1255C33.2285 43.1301 33.61 43.4951 33.6018 43.979C33.5935 44.4648 33.2166 44.8023 32.6531 44.8105C32.1052 44.8188 31.5573 44.8124 31.0093 44.8124Z" fill="#B0905B"/>
<path d="M55.0531 44.8124C54.4896 44.8124 53.927 44.8215 53.3635 44.8096C52.8375 44.7986 52.4689 44.4474 52.4625 43.9772C52.4561 43.5088 52.8266 43.1328 53.3452 43.1273C54.4869 43.1155 55.6285 43.1164 56.7701 43.1264C57.3007 43.131 57.6611 43.4823 57.6666 43.9589C57.6721 44.4519 57.3025 44.8014 56.7436 44.8105C56.1801 44.8197 55.6166 44.8124 55.0531 44.8124Z" fill="#B0905B"/>
<path d="M43.8729 40.5624C43.8619 41.0289 43.5344 41.3729 43.0203 41.3957C41.7643 41.4534 40.9484 42.069 40.5449 43.2591C40.3748 43.7613 39.9229 43.9946 39.4664 43.8574C39.0182 43.7229 38.7858 43.2619 38.913 42.7606C39.3603 41.0033 41.1725 39.6293 42.9801 39.676C43.5189 39.6897 43.8848 40.0528 43.8729 40.5624Z" fill="#B0905B"/>
</svg>
