<svg width="86" height="88" viewBox="0 0 86 88" fill="none" xmlns="http://www.w3.org/2000/svg">
<rect width="86" height="88" fill="#F5F5F5"/>
<g id="Home page" clip-path="url(#clip0_0_1)">
<rect width="1440" height="4262" transform="translate(-250 -1032)" fill="white"/>
<g id="2-section">
<g id="BG">
<rect id="Bg Rectangle" x="-250" y="-302" width="1440" height="656" fill="#F8F5F0"/>
<g id="BG Texture">
<mask id="mask0_0_1" style="mask-type:alpha" maskUnits="userSpaceOnUse" x="-250" y="-302" width="1440" height="656">
<rect id="Rectangle 4225" x="-250" y="-302" width="1440" height="656" fill="#F8F5F0"/>
</mask>
<g mask="url(#mask0_0_1)">
</g>
</g>
</g>
<g id="context">
<g id="1st">
<rect id="Box" x="-85" y="-40" width="255" height="294" rx="8" fill="white"/>
<g id="cotext">
<g id="Icon">
<path id="Star 1" d="M39.0648 1.79313C41.4111 0.0689577 44.5888 0.0689577 46.9352 1.79313C48.8529 3.20234 51.3078 3.63999 53.5884 2.97801C56.3749 2.16916 59.3623 3.26586 60.9852 5.69937C62.3091 7.68463 64.4666 8.94404 66.8339 9.11001C69.7262 9.31278 72.1643 11.3763 72.8661 14.2263C73.4377 16.5479 75.0376 18.4756 77.205 19.4491C79.856 20.6399 81.4494 23.4236 81.1439 26.3452C80.8952 28.7238 81.7458 31.0867 83.4516 32.7491C85.5417 34.7861 86.0956 37.9543 84.8199 40.5931C83.7805 42.7432 83.7805 45.2568 84.8199 47.4069C86.0956 50.0457 85.5417 53.2139 83.4516 55.2509C81.7458 56.9133 80.8952 59.2762 81.1439 61.6548C81.4494 64.5764 79.856 67.3601 77.205 68.5509C75.0376 69.5244 73.4377 71.4521 72.8661 73.7737C72.1643 76.6237 69.7262 78.6872 66.8339 78.89C64.4666 79.056 62.3091 80.3154 60.9852 82.3006C59.3623 84.7341 56.3749 85.8308 53.5884 85.022C51.3078 84.36 48.8529 84.7977 46.9352 86.2069C44.5888 87.931 41.4111 87.931 39.0648 86.2069C37.1471 84.7977 34.6922 84.36 32.4116 85.022C29.6251 85.8308 26.6377 84.7341 25.0148 82.3006C23.6909 80.3154 21.5334 79.056 19.166 78.89C16.2738 78.6872 13.8357 76.6237 13.1339 73.7737C12.5623 71.4521 10.9624 69.5244 8.79495 68.5509C6.14399 67.3601 4.55061 64.5764 4.8561 61.6548C5.10483 59.2762 4.25423 56.9133 2.5484 55.2509C0.458262 53.2139 -0.095563 50.0457 1.18008 47.4069C2.21945 45.2568 2.21945 42.7432 1.18008 40.5931C-0.0955633 37.9543 0.458263 34.7861 2.5484 32.7491C4.25423 31.0867 5.10483 28.7238 4.8561 26.3452C4.55061 23.4236 6.14399 20.6399 8.79495 19.4491C10.9624 18.4756 12.5623 16.5479 13.1339 14.2263C13.8357 11.3763 16.2738 9.31278 19.166 9.11001C21.5334 8.94404 23.6909 7.68463 25.0148 5.69937C26.6377 3.26586 29.6251 2.16916 32.4116 2.97801C34.6922 3.63999 37.1471 3.20234 39.0648 1.79313Z" fill="#F8F5F0" stroke="#E7D4B5"/>
<g id="Group 11">
<path id="Icon_2" d="M42.9998 30.6667C46.3349 34.3179 48.2302 39.0561 48.3332 44.0001C48.2302 48.944 46.3349 53.6823 42.9998 57.3334M42.9998 30.6667C39.6648 34.3179 37.7695 39.0561 37.6665 44.0001C37.7695 48.944 39.6648 53.6823 42.9998 57.3334M42.9998 30.6667C35.636 30.6667 29.6665 36.6363 29.6665 44.0001C29.6665 51.3639 35.636 57.3334 42.9998 57.3334M42.9998 30.6667C50.3636 30.6667 56.3332 36.6363 56.3332 44.0001C56.3332 51.3639 50.3636 57.3334 42.9998 57.3334M30.3332 40.0001L33.1778 39.7755C36.8588 39.4849 38.6992 39.3396 40.5422 39.2815C42.1802 39.2299 43.8195 39.2299 45.4575 39.2815C47.3005 39.3396 49.141 39.4849 52.8219 39.7755L55.6665 40.0001M30.3332 48.0001L33.1778 48.2247C36.8587 48.5153 38.6992 48.6606 40.5422 48.7187C42.1802 48.7703 43.8195 48.7703 45.4575 48.7187C47.3005 48.6606 49.1409 48.5153 52.8219 48.2247L55.6665 48.0001" stroke="#B0905B" stroke-width="1.5" stroke-linecap="round" stroke-linejoin="round"/>
</g>
</g>
</g>
</g>
</g>
</g>
</g>
<defs>
<clipPath id="clip0_0_1">
<rect width="1440" height="4262" fill="white" transform="translate(-250 -1032)"/>
</clipPath>
</defs>
</svg>
