<svg width="86" height="88" viewBox="0 0 86 88" fill="none" xmlns="http://www.w3.org/2000/svg">
<g id="Icon">
<path id="Star 2" d="M39.0648 1.79313C41.4111 0.0689577 44.5888 0.0689577 46.9352 1.79313C48.8529 3.20234 51.3078 3.63999 53.5884 2.97801C56.3749 2.16916 59.3623 3.26586 60.9852 5.69937C62.3091 7.68463 64.4666 8.94404 66.8339 9.11001C69.7262 9.31278 72.1643 11.3763 72.8661 14.2263C73.4377 16.5479 75.0376 18.4756 77.205 19.4491C79.856 20.6399 81.4494 23.4236 81.1439 26.3452C80.8952 28.7238 81.7458 31.0867 83.4516 32.7491C85.5417 34.7861 86.0956 37.9543 84.8199 40.5931C83.7805 42.7432 83.7805 45.2568 84.8199 47.4069C86.0956 50.0457 85.5417 53.2139 83.4516 55.2509C81.7458 56.9133 80.8952 59.2762 81.1439 61.6548C81.4494 64.5764 79.856 67.3601 77.205 68.5509C75.0376 69.5244 73.4377 71.4521 72.8661 73.7737C72.1643 76.6237 69.7262 78.6872 66.8339 78.89C64.4666 79.056 62.3091 80.3154 60.9852 82.3006C59.3623 84.7341 56.3749 85.8308 53.5884 85.022C51.3078 84.36 48.8529 84.7977 46.9352 86.2069C44.5888 87.931 41.4111 87.931 39.0648 86.2069C37.1471 84.7977 34.6922 84.36 32.4116 85.022C29.6251 85.8308 26.6377 84.7341 25.0148 82.3006C23.6909 80.3154 21.5334 79.056 19.166 78.89C16.2738 78.6872 13.8357 76.6237 13.1339 73.7737C12.5623 71.4521 10.9624 69.5244 8.79495 68.5509C6.14399 67.3601 4.55061 64.5764 4.8561 61.6548C5.10483 59.2762 4.25423 56.9133 2.5484 55.2509C0.458262 53.2139 -0.095563 50.0457 1.18008 47.4069C2.21945 45.2568 2.21945 42.7432 1.18008 40.5931C-0.0955633 37.9543 0.458263 34.7861 2.5484 32.7491C4.25423 31.0867 5.10483 28.7238 4.8561 26.3452C4.55061 23.4236 6.14399 20.6399 8.79495 19.4491C10.9624 18.4756 12.5623 16.5479 13.1339 14.2263C13.8357 11.3763 16.2738 9.31278 19.166 9.11001C21.5334 8.94404 23.6909 7.68463 25.0148 5.69937C26.6377 3.26586 29.6251 2.16916 32.4116 2.97801C34.6922 3.63999 37.1471 3.20234 39.0648 1.79313Z" fill="#F8F5F0" stroke="#E7D4B5"/>
<g id="Group 15">
<path id="Vector" d="M58.3747 32C58.5905 32.3587 58.7768 32.6692 59 33.0395C56.4997 34.5269 54.013 36.0059 51.4927 37.5049C53.1898 40.3171 54.8637 43.0916 56.5618 45.9059C57.104 45.5304 57.603 45.1853 58.1409 44.8118C58.3778 45.1454 58.5957 45.4517 58.8431 45.7999C58.1525 46.2804 57.5061 46.7587 56.826 47.1804C56.6734 47.2758 56.3754 47.2339 56.1849 47.1552C55.8164 47.0031 55.6048 47.1489 55.3858 47.4132C55.2195 47.6146 55.0268 47.7992 54.8226 47.9629C54.3046 48.3783 53.9267 48.7622 54.0067 49.573C54.1015 50.5265 53.2708 51.2198 52.1023 51.4265C52.0749 52.7135 51.418 53.4919 50.1294 53.6681C49.8799 55.2216 49.2282 55.745 47.669 55.6548C47.588 55.7912 47.5038 55.9412 47.4132 56.087C46.8216 57.0352 45.8414 57.4128 44.7802 57.052C43.6569 56.6702 42.5484 56.2474 41.3924 55.8268C40.886 56.5244 40.3765 57.2534 39.3827 57.3279C38.5542 57.3898 37.8835 56.9272 37.3908 55.8992C36.7244 56.1467 36.0433 56.1877 35.4074 55.7723C34.7568 55.3464 34.5442 54.7065 34.5631 53.9419C34.4441 53.9335 34.3431 53.923 34.242 53.9198C33.2219 53.8873 32.6292 53.3901 32.3797 52.402C32.3397 52.2447 32.187 52.0496 32.0396 51.9971C30.8731 51.5733 30.391 50.5611 30.89 49.3947C31.0637 48.9887 31.0721 48.7003 30.7552 48.3824C30.5594 48.1863 30.4099 47.9419 30.2594 47.7069C30.0488 47.3797 29.8741 47.0167 29.3708 47.2559C29.3161 47.2821 29.2034 47.2223 29.135 47.1762C28.4886 46.7304 27.8454 46.2793 27.1569 45.7978C27.3937 45.4611 27.6085 45.1559 27.8517 44.8097C28.3844 45.1769 28.8824 45.5209 29.4372 45.9027C31.13 43.0979 32.8039 40.3244 34.5073 37.5038C32.0038 36.0143 29.5277 34.5416 27 33.0395C27.2053 32.6975 27.3969 32.3776 27.618 32.0094C27.8085 32.1164 27.9728 32.2045 28.1328 32.3C30.4962 33.7024 32.8597 35.1059 35.2221 36.5084C35.8064 36.8556 35.958 37.3108 35.6643 38.0503C36.5518 38.3545 37.4319 38.6713 38.3246 38.9461C38.4689 38.9902 38.671 38.8444 38.8468 38.7877C40.8218 38.1563 42.8452 37.7524 44.9097 37.5804C45.2445 37.5521 45.5972 37.6884 45.9351 37.7734C47.0037 38.044 48.0691 38.3262 49.1355 38.6031C49.8398 38.7856 49.8599 38.7825 50.5999 38.3912C50.342 37.9717 49.9872 37.5552 50.2736 37.0161C50.3431 36.8849 50.4231 36.7287 50.5431 36.6573C53.1277 35.1133 55.7164 33.5787 58.3747 32ZM35.4895 47.6125C36.2791 47.1835 37.054 47.1489 37.7983 47.6366C38.5699 48.1433 38.671 48.931 38.5636 49.7524C39.9028 49.9884 40.2891 50.408 40.5565 51.8765C41.2113 51.9992 41.7693 52.2908 42.1125 52.9034C42.4547 53.5118 42.3852 54.1359 42.1083 54.7999C43.1863 55.188 44.1981 55.573 45.2245 55.9139C45.8435 56.1195 46.3331 55.7702 46.4626 55.0726C45.2856 54.5251 44.1023 53.9733 42.8937 53.41C43.0737 53.0251 43.2337 52.6842 43.4064 52.3149C44.4465 52.7943 45.4424 53.2538 46.4394 53.7132C46.8679 53.9114 47.2974 54.1097 47.7238 54.3111C48.1028 54.4894 48.4776 54.5618 48.7534 54.1621C49.0366 53.751 48.8018 53.4331 48.4955 53.1625C48.327 53.0135 48.1449 52.8719 47.948 52.7639C47.1048 52.3003 46.2531 51.8513 45.4056 51.3961C45.0887 51.2261 44.7739 51.052 44.4402 50.8695C44.6592 50.4856 44.8445 50.1604 45.0392 49.8195C46.611 50.6629 48.1365 51.4821 49.663 52.2992C50.0567 52.5101 50.4136 52.4545 50.6936 52.1031C50.9568 51.7726 50.9021 51.3405 50.5326 51.0342C50.2115 50.7688 49.8651 50.5233 49.5019 50.3188C48.3944 49.6978 47.2721 49.102 46.132 48.4831C46.3499 48.1066 46.5363 47.7825 46.7352 47.4394C46.9868 47.5737 47.1869 47.6786 47.3858 47.7856C48.7723 48.5324 50.1557 49.2835 51.5453 50.0251C52.0296 50.2831 52.4581 50.1961 52.7013 49.8195C52.9255 49.4713 52.8308 49.0443 52.4539 48.7055C49.9104 46.4178 47.1974 44.3608 44.2044 42.6825C43.7969 42.4538 43.4053 42.4255 42.9474 42.5178C42.0809 42.6919 41.3966 43.1031 40.8766 43.8132C40.6913 44.066 40.4923 44.3377 40.2354 44.5013C39.729 44.8244 39.2069 45.1957 38.6384 45.3321C37.8088 45.5325 36.975 45.3657 36.417 44.6209C35.8685 43.8888 36.0486 43.1545 36.4886 42.4255C36.9466 41.6681 37.3666 40.8888 37.8077 40.1084C36.8381 39.7538 35.9243 39.4192 34.9832 39.0751C33.5819 41.3944 32.1912 43.6937 30.8089 45.9982C30.7594 46.0811 30.7563 46.2457 30.8079 46.3234C31.1279 46.8164 31.469 47.2968 31.8069 47.7856C33.4872 46.3381 34.222 46.3045 35.4895 47.6125ZM51.2737 39.5052C51.0863 39.5702 50.9295 39.6028 50.7937 39.6741C50.1304 40.0213 49.4735 39.9898 48.7639 39.7769C47.609 39.4297 46.4299 39.1612 45.2582 38.8685C45.075 38.8223 44.8708 38.7772 44.6918 38.8119C43.0095 39.1381 41.3303 39.4769 39.6543 39.8272C39.5006 39.8598 39.309 39.9626 39.2353 40.0905C38.6099 41.1615 37.9983 42.2398 37.4035 43.3286C37.1824 43.7325 37.355 44.044 37.8172 44.1321C38.4068 44.2444 38.9342 44.1101 39.3616 43.6737C39.6185 43.4115 39.9028 43.1618 40.1028 42.8587C40.7808 41.8286 41.8356 41.4688 42.9547 41.3063C43.4611 41.2328 44.1023 41.2622 44.517 41.5139C46.3699 42.6363 48.1986 43.8069 49.9662 45.0573C51.1032 45.8618 52.1191 46.8353 53.2961 47.8223C53.9056 47.1573 54.492 46.5174 55.1037 45.8492C53.8362 43.7513 52.557 41.6325 51.2737 39.5052ZM37.4866 49.165C37.3182 48.9625 37.1866 48.6552 36.9971 48.6132C36.7065 48.5503 36.2423 48.5524 36.0844 48.7317C35.2442 49.6831 34.4578 50.6849 33.704 51.7066C33.5819 51.8712 33.6198 52.295 33.7535 52.4649C33.8809 52.6275 34.2536 52.7083 34.4789 52.6559C34.7642 52.5908 35.0642 52.4031 35.2642 52.1838C35.8875 51.5031 36.4812 50.794 37.054 50.0702C37.2403 49.8342 37.3235 49.5174 37.4866 49.165ZM38.4678 51.0237C38.3889 51.0478 38.2152 51.0594 38.0951 51.1443C37.0887 51.8555 36.2991 52.7566 35.8664 53.9156C35.7875 54.1286 35.8654 54.5188 36.0222 54.6667C36.1833 54.8188 36.5434 54.8398 36.7939 54.7947C37.0118 54.7558 37.2382 54.5786 37.394 54.4034C37.9604 53.7625 38.5078 53.1027 39.0416 52.4345C39.1669 52.2782 39.2521 52.0663 39.29 51.8681C39.3795 51.3803 39.0384 51.0111 38.4678 51.0237ZM41.1692 53.7468C41.0387 53.5831 40.9229 53.3041 40.725 53.2244C40.5207 53.1426 40.1259 53.1604 40.0101 53.2978C39.5332 53.8653 39.1026 54.4768 38.7152 55.1083C38.5247 55.4188 38.5447 55.7985 38.9353 56.0104C39.2953 56.2055 39.629 56.1069 39.8638 55.7964C40.2617 55.2698 40.6344 54.7233 41.0082 54.1789C41.0755 54.0835 41.0945 53.9566 41.1692 53.7468ZM31.9249 50.3629C32.0059 50.4499 32.1407 50.7101 32.3407 50.7761C32.5102 50.8317 32.825 50.7268 32.9524 50.5842C33.4145 50.0629 33.8114 49.4859 34.2589 48.952C34.4841 48.6835 34.5768 48.3908 34.3062 48.1779C34.1073 48.0206 33.7546 47.9115 33.5209 47.9713C32.9471 48.1192 31.9343 49.6108 31.9249 50.3629Z" fill="#B0905B"/>
</g>
</g>
</svg>
