<svg width="86" height="88" viewBox="0 0 86 88" fill="none" xmlns="http://www.w3.org/2000/svg">
<path d="M39.0648 1.79313C41.4111 0.0689577 44.5888 0.0689577 46.9352 1.79313C48.8529 3.20234 51.3078 3.63999 53.5884 2.97801C56.3749 2.16916 59.3623 3.26586 60.9852 5.69937C62.3091 7.68463 64.4666 8.94404 66.8339 9.11001C69.7262 9.31278 72.1643 11.3763 72.8661 14.2263C73.4377 16.5479 75.0376 18.4756 77.205 19.4491C79.856 20.6399 81.4494 23.4236 81.1439 26.3452C80.8952 28.7238 81.7458 31.0867 83.4516 32.7491C85.5417 34.7861 86.0956 37.9543 84.8199 40.5931C83.7805 42.7432 83.7805 45.2568 84.8199 47.4069C86.0956 50.0457 85.5417 53.2139 83.4516 55.2509C81.7458 56.9133 80.8952 59.2762 81.1439 61.6548C81.4494 64.5764 79.856 67.3601 77.205 68.5509C75.0376 69.5244 73.4377 71.4521 72.8661 73.7737C72.1643 76.6237 69.7262 78.6872 66.8339 78.89C64.4666 79.056 62.3091 80.3154 60.9852 82.3006C59.3623 84.7341 56.3749 85.8308 53.5884 85.022C51.3078 84.36 48.8529 84.7977 46.9352 86.2069C44.5888 87.931 41.4111 87.931 39.0648 86.2069C37.1471 84.7977 34.6922 84.36 32.4116 85.022C29.6251 85.8308 26.6377 84.7341 25.0148 82.3006C23.6909 80.3154 21.5334 79.056 19.166 78.89C16.2738 78.6872 13.8357 76.6237 13.1339 73.7737C12.5623 71.4521 10.9624 69.5244 8.79495 68.5509C6.14399 67.3601 4.55061 64.5764 4.8561 61.6548C5.10483 59.2762 4.25423 56.9133 2.5484 55.2509C0.458262 53.2139 -0.095563 50.0457 1.18008 47.4069C2.21945 45.2568 2.21945 42.7432 1.18008 40.5931C-0.0955633 37.9543 0.458263 34.7861 2.5484 32.7491C4.25423 31.0867 5.10483 28.7238 4.8561 26.3452C4.55061 23.4236 6.14399 20.6399 8.79495 19.4491C10.9624 18.4756 12.5623 16.5479 13.1339 14.2263C13.8357 11.3763 16.2738 9.31278 19.166 9.11001C21.5334 8.94404 23.6909 7.68463 25.0148 5.69937C26.6377 3.26586 29.6251 2.16916 32.4116 2.97801C34.6922 3.63999 37.1471 3.20234 39.0648 1.79313Z" fill="#F8F5F0" stroke="#E7D4B5"/>
<path d="M50.6442 53.9754C50.9217 53.7223 51.3503 53.7427 51.6032 54.0202C51.8562 54.2976 51.8358 54.7263 51.5584 54.9792C49.0264 57.2768 45.7311 58.6666 42.2953 58.6666C39.3265 58.6666 36.454 57.7219 34.0767 55.9894L34.0808 57.522C34.0808 57.8954 33.7767 58.1995 33.4033 58.1995C33.0299 58.1995 32.7259 57.8955 32.7259 57.522L32.7157 54.6447C32.6709 54.204 33.0666 53.8347 33.4829 53.8856L36.3496 53.8815C36.7229 53.8815 37.027 54.1856 37.027 54.559C37.027 54.9325 36.723 55.2365 36.3496 55.2365L35.3682 55.2386C37.4126 56.5874 39.7977 57.3076 42.2932 57.3076C45.4027 57.3076 48.3509 56.0568 50.6423 53.9773L50.6442 53.9754ZM56.7899 48.9495C57.1469 48.8392 57.5285 49.0414 57.6367 49.3984C57.747 49.7554 57.5448 50.1371 57.1878 50.2453L54.4598 51.0922C54.0517 51.28 53.5723 51.0105 53.4927 50.5964L52.6419 47.8478C52.5316 47.4908 52.7337 47.1092 53.0907 47.0009C53.4477 46.8906 53.8293 47.0928 53.9375 47.4499L54.262 48.5028C54.6742 47.2845 54.8946 46.0113 54.8946 44.7052C54.8946 38.6835 50.6303 33.4842 44.715 32.3349C44.3478 32.2656 44.107 31.9085 44.1763 31.5412C44.2457 31.174 44.6027 30.9332 44.9699 31.0025C51.5173 32.2738 56.2551 38.0383 56.2551 44.7048C56.2551 46.3067 55.9511 47.8923 55.386 49.386L56.7877 48.9493L56.7899 48.9495ZM37.009 30.5779C36.6968 30.3719 36.611 29.9493 36.8173 29.6373C37.0233 29.3251 37.4458 29.2393 37.7577 29.4456L40.1347 31.0291C40.5428 31.2228 40.6365 31.7882 40.3509 32.1106L38.7697 34.4858C38.5637 34.798 38.1412 34.8838 37.8292 34.6775C37.517 34.4715 37.4313 34.0489 37.6375 33.7369L38.2944 32.7493C33.2181 34.441 29.6924 39.2325 29.6924 44.7052C29.6924 46.6273 30.1187 48.5108 30.9655 50.2372C31.3573 51.0391 30.1392 51.6308 29.7495 50.8309C28.8149 48.9229 28.3335 46.8293 28.3335 44.7029C28.3335 38.5261 32.3917 33.1372 38.1842 31.3594L37.009 30.5757L37.009 30.5779Z" fill="#B0905B"/>
</svg>
