<svg width="44" height="44" viewBox="0 0 44 44" fill="none" xmlns="http://www.w3.org/2000/svg">
<g id="Group 6029">
<path id="Star 2" d="M20.1268 1.10123C21.2431 0.299589 22.7569 0.299589 23.8732 1.10123C24.9148 1.84925 26.2462 2.08063 27.4824 1.72994C28.8115 1.3529 30.2324 1.86565 31.0015 2.99281C31.7226 4.04941 32.895 4.71655 34.1778 4.80445C35.5575 4.89898 36.7124 5.85983 37.0439 7.17555C37.3559 8.41379 38.2279 9.43806 39.4041 9.95435C40.6657 10.5081 41.4169 11.7983 41.2727 13.1454C41.1369 14.4148 41.6018 15.6737 42.5299 16.5576C43.5208 17.5014 43.7811 18.9652 43.1784 20.1837C42.6115 21.3297 42.6115 22.6703 43.1784 23.8163C43.7811 25.0348 43.5208 26.4986 42.5299 27.4424C41.6018 28.3263 41.1369 29.5852 41.2727 30.8546C41.4169 32.2017 40.6657 33.4919 39.4041 34.0456C38.2279 34.5619 37.3559 35.5862 37.0439 36.8244C36.7124 38.1402 35.5575 39.101 34.1778 39.1956C32.895 39.2834 31.7226 39.9506 31.0015 41.0072C30.2324 42.1343 28.8115 42.6471 27.4824 42.2701C26.2462 41.9194 24.9148 42.1508 23.8732 42.8988C22.7569 43.7004 21.2431 43.7004 20.1268 42.8988C19.0852 42.1508 17.7538 41.9194 16.5176 42.2701C15.1885 42.6471 13.7676 42.1343 12.9985 41.0072C12.2774 39.9506 11.105 39.2834 9.82217 39.1956C8.44247 39.101 7.28763 38.1402 6.95612 36.8244C6.64414 35.5862 5.77207 34.5619 4.5959 34.0456C3.33428 33.4919 2.58312 32.2017 2.72725 30.8546C2.86308 29.5852 2.39817 28.3263 1.47013 27.4424C0.479172 26.4986 0.218901 25.0348 0.821616 23.8163C1.3885 22.6703 1.3885 21.3297 0.821615 20.1837C0.218901 18.9652 0.479172 17.5014 1.47013 16.5576C2.39817 15.6737 2.86308 14.4148 2.72725 13.1454C2.58312 11.7983 3.33428 10.5081 4.59589 9.95435C5.77207 9.43806 6.64414 8.41379 6.95612 7.17555C7.28763 5.85983 8.44247 4.89898 9.82217 4.80445C11.105 4.71655 12.2774 4.04941 12.9985 2.99281C13.7676 1.86565 15.1885 1.3529 16.5176 1.72994C17.7538 2.08063 19.0852 1.84925 20.1268 1.10123Z" fill="#F8F5F0" stroke="#E7D4B5"/>
<g id="Group 6027">
<path id="Icon" d="M15.5835 23.8333H27.6246C28.553 23.8333 29.0172 23.8333 29.3868 23.6602C29.7123 23.5077 29.9858 23.2629 30.1733 22.9561C30.3862 22.608 30.4374 22.1466 30.54 21.2239L31.0762 16.3976C31.1075 16.1157 31.1232 15.9748 31.0779 15.8657C31.0381 15.7699 30.967 15.6905 30.8761 15.6403C30.7727 15.5833 30.631 15.5833 30.3474 15.5833H15.1252M12.8334 12.8333H13.9778C14.2203 12.8333 14.3416 12.8333 14.4365 12.8794C14.5201 12.92 14.5893 12.985 14.635 13.0659C14.687 13.1577 14.6946 13.2787 14.7097 13.5208L15.5404 26.8123C15.5555 27.0544 15.5631 27.1755 15.6151 27.2673C15.6608 27.3481 15.73 27.4132 15.8136 27.4538C15.9084 27.4999 16.0297 27.4999 16.2723 27.4999H28.4167M17.875 30.7083H17.8842M26.125 30.7083H26.1342M18.3334 30.7083C18.3334 30.9614 18.1282 31.1666 17.875 31.1666C17.6219 31.1666 17.4167 30.9614 17.4167 30.7083C17.4167 30.4551 17.6219 30.2499 17.875 30.2499C18.1282 30.2499 18.3334 30.4551 18.3334 30.7083ZM26.5834 30.7083C26.5834 30.9614 26.3782 31.1666 26.125 31.1666C25.8719 31.1666 25.6667 30.9614 25.6667 30.7083C25.6667 30.4551 25.8719 30.2499 26.125 30.2499C26.3782 30.2499 26.5834 30.4551 26.5834 30.7083Z" stroke="#B0905B" stroke-width="1.5" stroke-linecap="round" stroke-linejoin="round"/>
</g>
</g>
</svg>
