<svg width="70" height="70" viewBox="0 0 70 70" fill="none" xmlns="http://www.w3.org/2000/svg">
<path d="M31.8476 1.51198C33.7265 0.162674 36.2735 0.162674 38.1524 1.51198C39.736 2.64924 41.761 3.00137 43.6414 2.46793C45.8769 1.83379 48.2686 2.69544 49.5647 4.59475C50.6602 6.20017 52.4425 7.21497 54.394 7.34868C56.7145 7.50766 58.6608 9.12423 59.2199 11.3435C59.6937 13.2239 61.0185 14.7808 62.8071 15.5659C64.9304 16.498 66.1982 18.6716 65.955 20.9446C65.7487 22.8721 66.4545 24.7843 67.8649 26.1277C69.5346 27.7179 69.9743 30.1863 68.9577 32.2414C68.0967 33.982 68.0967 36.018 68.9577 37.7586C69.9743 39.8137 69.5346 42.2821 67.8649 43.8723C66.4545 45.2157 65.7487 47.1279 65.955 49.0554C66.1982 51.3284 64.9304 53.502 62.8071 54.4341C61.0185 55.2192 59.6937 56.7761 59.2199 58.6565C58.6608 60.8758 56.7145 62.4923 54.394 62.6513C52.4425 62.785 50.6602 63.7998 49.5647 65.4052C48.2686 67.3046 45.8769 68.1662 43.6414 67.5321C41.761 66.9986 39.736 67.3508 38.1524 68.488C36.2735 69.8373 33.7265 69.8373 31.8476 68.488C30.2639 67.3508 28.239 66.9986 26.3586 67.5321C24.1231 68.1662 21.7314 67.3046 20.4353 65.4052C19.3398 63.7998 17.5575 62.785 15.606 62.6513C13.2855 62.4923 11.3392 60.8758 10.7801 58.6565C10.3063 56.7761 8.98152 55.2192 7.1929 54.4341C5.0696 53.502 3.80184 51.3284 4.04503 49.0554C4.25127 47.1279 3.5455 45.2157 2.13507 43.8723C0.465423 42.2821 0.0257376 39.8137 1.04229 37.7586C1.90331 36.018 1.90331 33.982 1.04229 32.2414C0.0257372 30.1863 0.465423 27.7179 2.13507 26.1277C3.5455 24.7843 4.25127 22.8721 4.04503 20.9446C3.80183 18.6716 5.0696 16.498 7.1929 15.5659C8.98152 14.7808 10.3063 13.2239 10.7801 11.3435C11.3392 9.12423 13.2855 7.50766 15.606 7.34868C17.5575 7.21497 19.3398 6.20017 20.4353 4.59475C21.7314 2.69544 24.1231 1.83379 26.3586 2.46793C28.239 3.00137 30.2639 2.64924 31.8476 1.51198Z" fill="#F8F5F0" stroke="#E7D4B5"/>
<path d="M47.7305 22.0318C47.567 21.9671 47.3791 22.003 47.2539 22.1229L44.5386 24.7269H34.317C32.8649 24.7269 31.6839 25.8596 31.6839 27.252V32.3538H24.6338C23.1817 32.3538 22 33.487 22 34.879V47.5804C22 47.7501 22.1065 47.9031 22.27 47.9682C22.324 47.9893 22.3812 48 22.4373 48C22.5512 48 22.663 47.9573 22.7467 47.8769L25.4622 45.2731H35.6832C37.1353 45.2731 38.3165 44.1404 38.3165 42.7475V37.6457H45.3667C46.8186 37.6457 48 36.513 48 35.1207V22.4193C48 22.2494 47.8937 22.0965 47.7302 22.0316L47.7305 22.0318ZM37.4428 42.7479C37.4428 43.6779 36.6535 44.4344 35.6837 44.4344H25.2819C25.1657 44.4344 25.0546 44.4783 24.9726 44.5571L22.8756 46.568L22.8754 34.8787C22.8754 33.9487 23.6645 33.1924 24.6345 33.1924H35.684C36.6538 33.1924 37.4431 33.9491 37.4431 34.8787V42.7479L37.4428 42.7479ZM47.1264 35.1212C47.1264 36.0511 46.3373 36.8075 45.3677 36.8075H38.3175V34.8792C38.3175 33.4869 37.1363 32.354 35.6842 32.354L32.5593 32.3538V27.252C32.5593 26.322 33.348 25.5656 34.3178 25.5656H44.7201C44.8363 25.5656 44.9473 25.5216 45.0294 25.4428L47.1263 23.4325L47.1264 35.1212ZM25.4772 37.6852C24.8283 37.6852 24.3003 38.1915 24.3003 38.8133C24.3003 39.4356 24.8282 39.9418 25.4772 39.9418C26.1259 39.9418 26.6536 39.4356 26.6536 38.8133C26.6536 38.1914 26.1257 37.6852 25.4772 37.6852ZM25.4772 39.1031C25.3103 39.1031 25.175 38.9731 25.175 38.8133C25.175 38.6535 25.3103 38.5239 25.4772 38.5239C25.6438 38.5239 25.7789 38.6537 25.7789 38.8133C25.7789 38.9731 25.6434 39.1031 25.4772 39.1031ZM30.1594 37.6852C29.5111 37.6852 28.983 38.1915 28.983 38.8133C28.983 39.4356 29.5111 39.9418 30.1594 39.9418C30.8083 39.9418 31.3358 39.4356 31.3358 38.8133C31.3358 38.1914 30.8084 37.6852 30.1594 37.6852ZM30.1594 39.1031C29.9928 39.1031 29.8577 38.9731 29.8577 38.8133C29.8577 38.6535 29.993 38.5239 30.1594 38.5239C30.3263 38.5239 30.4616 38.6537 30.4616 38.8133C30.4616 38.9731 30.3259 39.1031 30.1594 39.1031ZM34.8419 37.6852C34.1932 37.6852 33.6655 38.1915 33.6655 38.8133C33.6655 39.4356 34.1934 39.9418 34.8419 39.9418C35.4908 39.9418 36.0187 39.4356 36.0187 38.8133C36.0187 38.1914 35.4908 37.6852 34.8419 37.6852ZM34.8419 39.1031C34.6753 39.1031 34.5397 38.9731 34.5397 38.8133C34.5397 38.6535 34.6753 38.5239 34.8419 38.5239C35.0088 38.5239 35.1437 38.6537 35.1437 38.8133C35.1439 38.9731 35.0086 39.1031 34.8419 39.1031ZM45.1059 28.2382C45.1059 28.4699 44.9101 28.6573 44.6688 28.6573H35.017C34.7751 28.6573 34.5795 28.4699 34.5795 28.2382C34.5795 28.0064 34.7749 27.8184 35.017 27.8184H44.6688C44.9101 27.8184 45.1059 28.0064 45.1059 28.2382ZM45.1059 31.1865C45.1059 31.4183 44.9101 31.6061 44.6688 31.6061H35.017C34.7751 31.6061 34.5795 31.4187 34.5795 31.1865C34.5795 30.9552 34.7749 30.767 35.017 30.767H44.6688C44.9101 30.7674 45.1059 30.9552 45.1059 31.1865ZM45.1059 34.1349C45.1059 34.3666 44.9101 34.5544 44.6688 34.5544H40.3413C40.1001 34.5544 39.9044 34.3666 39.9044 34.1349C39.9044 33.9035 40.0998 33.7153 40.3413 33.7153H44.6687C44.9101 33.7157 45.1059 33.9035 45.1059 34.1349Z" fill="#B0905B"/>
</svg>
