<svg width="44" height="44" viewBox="0 0 44 44" fill="none" xmlns="http://www.w3.org/2000/svg">
<g id="Group 20">
<path id="Star 2" d="M20.1268 1.10123C21.2431 0.299589 22.7569 0.299589 23.8732 1.10123C24.9148 1.84924 26.2462 2.08063 27.4824 1.72994C28.8115 1.3529 30.2324 1.86565 31.0015 2.99281C31.7225 4.04941 32.895 4.71655 34.1778 4.80445C35.5575 4.89897 36.7123 5.85983 37.0439 7.17555C37.3558 8.41378 38.2279 9.43806 39.4041 9.95435C40.6657 10.5081 41.4169 11.7983 41.2727 13.1454C41.1369 14.4148 41.6018 15.6737 42.5299 16.5576C43.5208 17.5014 43.7811 18.9652 43.1784 20.1837C42.6115 21.3297 42.6115 22.6703 43.1784 23.8163C43.7811 25.0348 43.5208 26.4986 42.5299 27.4424C41.6018 28.3263 41.1369 29.5851 41.2727 30.8546C41.4169 32.2017 40.6657 33.4918 39.4041 34.0456C38.2279 34.5619 37.3558 35.5862 37.0439 36.8244C36.7123 38.1401 35.5575 39.101 34.1778 39.1955C32.895 39.2834 31.7225 39.9506 31.0015 41.0072C30.2324 42.1343 28.8115 42.6471 27.4824 42.27C26.2462 41.9193 24.9148 42.1507 23.8732 42.8987C22.7569 43.7004 21.2431 43.7004 20.1268 42.8987C19.0852 42.1507 17.7538 41.9193 16.5176 42.27C15.1885 42.6471 13.7676 42.1343 12.9985 41.0072C12.2774 39.9506 11.105 39.2834 9.82217 39.1955C8.44247 39.101 7.28763 38.1401 6.95612 36.8244C6.64413 35.5862 5.77207 34.5619 4.59589 34.0456C3.33428 33.4918 2.58312 32.2017 2.72725 30.8546C2.86308 29.5851 2.39817 28.3263 1.47013 27.4424C0.479171 26.4986 0.218901 25.0348 0.821616 23.8163C1.3885 22.6703 1.3885 21.3297 0.821615 20.1837C0.218901 18.9652 0.479172 17.5014 1.47013 16.5576C2.39817 15.6737 2.86308 14.4148 2.72725 13.1454C2.58312 11.7983 3.33428 10.5081 4.59589 9.95435C5.77207 9.43806 6.64413 8.41378 6.95612 7.17555C7.28763 5.85983 8.44247 4.89897 9.82217 4.80445C11.105 4.71655 12.2774 4.04941 12.9985 2.99281C13.7676 1.86565 15.1885 1.3529 16.5176 1.72994C17.7538 2.08063 19.0852 1.84924 20.1268 1.10123Z" fill="#F8F5F0" stroke="#E7D4B5"/>
<g id="Group 15">
<path id="Vector" d="M32.5701 13.75C32.7184 13.9966 32.8465 14.2101 33 14.4647C31.281 15.4873 29.5714 16.5041 27.8387 17.5346C29.0055 19.468 30.1563 21.3754 31.3237 23.3103C31.6965 23.0521 32.0395 22.8149 32.4094 22.5581C32.5722 22.7875 32.7221 22.998 32.8921 23.2375C32.4173 23.5677 31.9729 23.8966 31.5054 24.1865C31.4004 24.2521 31.1956 24.2233 31.0646 24.1692C30.8113 24.0646 30.6658 24.1649 30.5153 24.3466C30.4009 24.485 30.2684 24.612 30.128 24.7245C29.7719 25.01 29.5121 25.274 29.5671 25.8314C29.6322 26.487 29.0612 26.9636 28.2578 27.1057C28.239 27.9906 27.7873 28.5257 26.9014 28.6468C26.7299 29.7148 26.2819 30.0747 25.21 30.0127C25.1542 30.1064 25.0963 30.2095 25.0341 30.3098C24.6273 30.9617 23.9535 31.2213 23.2239 30.9732C22.4516 30.7107 21.6895 30.4201 20.8948 30.1309C20.5466 30.6105 20.1963 31.1117 19.5131 31.1629C18.9435 31.2054 18.4824 30.8874 18.1437 30.1807C17.6855 30.3509 17.2173 30.379 16.7801 30.0934C16.3328 29.8006 16.1866 29.3607 16.1996 28.835C16.1178 28.8293 16.0484 28.822 15.9789 28.8199C15.2775 28.7975 14.87 28.4557 14.6985 27.7764C14.671 27.6682 14.5661 27.5341 14.4647 27.498C13.6628 27.2067 13.3313 26.5108 13.6744 25.7088C13.7938 25.4298 13.7996 25.2314 13.5817 25.0129C13.4471 24.8781 13.3443 24.71 13.2408 24.5485C13.0961 24.3235 12.9759 24.074 12.63 24.2384C12.5923 24.2564 12.5149 24.2153 12.4678 24.1836C12.0234 23.8771 11.5812 23.567 11.1078 23.236C11.2707 23.0045 11.4183 22.7947 11.5855 22.5567C11.9518 22.8091 12.2941 23.0456 12.6755 23.3081C13.8394 21.3798 14.9902 19.473 16.1613 17.5339C14.4401 16.5098 12.7378 15.4973 11 14.4647C11.1411 14.2296 11.2729 14.0096 11.4249 13.7565C11.5559 13.83 11.6688 13.8906 11.7788 13.9562C13.4037 14.9204 15.0286 15.8853 16.6527 16.8495C17.0544 17.0882 17.1586 17.4012 16.9567 17.9096C17.5668 18.1187 18.1719 18.3365 18.7857 18.5255C18.8849 18.5557 19.0238 18.4555 19.1447 18.4166C20.5025 17.9824 21.8936 17.7048 23.3129 17.5865C23.5431 17.567 23.7856 17.6608 24.0179 17.7192C24.7525 17.9053 25.485 18.0993 26.2182 18.2896C26.7024 18.4151 26.7161 18.413 27.225 18.144C27.0476 17.8555 26.8037 17.5692 27.0006 17.1985C27.0484 17.1084 27.1034 17.0009 27.1859 16.9519C28.9628 15.8904 30.7425 14.8353 32.5701 13.75ZM16.8366 24.4836C17.3794 24.1887 17.9121 24.1649 18.4238 24.5002C18.9543 24.8485 19.0238 25.3901 18.95 25.9548C19.8706 26.117 20.1363 26.4055 20.3201 27.4151C20.7703 27.4995 21.1539 27.6999 21.3898 28.1211C21.6251 28.5394 21.5773 28.9684 21.387 29.4249C22.1281 29.6918 22.8237 29.9564 23.5293 30.1908C23.9549 30.3321 24.2915 30.092 24.3805 29.6124C23.5713 29.236 22.7578 28.8567 21.9269 28.4694C22.0507 28.2047 22.1607 27.9704 22.2794 27.7165C22.9945 28.0461 23.6792 28.3619 24.3646 28.6778C24.6592 28.8141 24.9545 28.9504 25.2476 29.0889C25.5082 29.2115 25.7658 29.2612 25.9554 28.9865C26.1501 28.7038 25.9887 28.4853 25.7781 28.2992C25.6623 28.1968 25.5371 28.0995 25.4018 28.0252C24.822 27.7064 24.2365 27.3978 23.6538 27.0848C23.436 26.968 23.2196 26.8483 22.9901 26.7228C23.1407 26.4588 23.2681 26.2353 23.402 26.0009C24.4826 26.5807 25.5313 27.1439 26.5808 27.7057C26.8515 27.8507 27.0968 27.8124 27.2894 27.5708C27.4703 27.3437 27.4327 27.0466 27.1786 26.836C26.9579 26.6535 26.7198 26.4848 26.4701 26.3442C25.7086 25.9172 24.9371 25.5076 24.1532 25.0822C24.3031 24.8233 24.4312 24.6004 24.568 24.3646C24.7409 24.4569 24.8785 24.529 25.0153 24.6026C25.9685 25.1161 26.9195 25.6324 27.8749 26.1422C28.2078 26.3197 28.5024 26.2598 28.6696 26.0009C28.8238 25.7615 28.7586 25.468 28.4995 25.235C26.7509 23.6622 24.8857 22.248 22.828 21.0942C22.5479 20.937 22.2787 20.9175 21.9638 20.981C21.3681 21.1007 20.8977 21.3834 20.5401 21.8716C20.4127 22.0454 20.276 22.2322 20.0994 22.3447C19.7512 22.5668 19.3922 22.8221 19.0014 22.9158C18.431 23.0536 17.8578 22.9389 17.4742 22.4269C17.0971 21.9235 17.2209 21.4187 17.5234 20.9175C17.8383 20.3968 18.1271 19.861 18.4303 19.3245C17.7637 19.0807 17.1355 18.8507 16.4884 18.6142C15.5251 20.2086 14.569 21.7894 13.6186 23.3738C13.5846 23.4307 13.5824 23.5439 13.6179 23.5973C13.8379 23.9362 14.0724 24.2665 14.3048 24.6026C15.4599 23.6074 15.9651 23.5843 16.8366 24.4836ZM27.6882 18.9098C27.5593 18.9545 27.4515 18.9769 27.3581 19.0259C26.9022 19.2646 26.4505 19.243 25.9627 19.0966C25.1687 18.8579 24.3581 18.6733 23.5525 18.4721C23.4266 18.4404 23.2862 18.4094 23.1631 18.4332C22.0065 18.6574 20.8521 18.8904 19.6998 19.1312C19.5942 19.1536 19.4624 19.2243 19.4118 19.3122C18.9818 20.0485 18.5613 20.7899 18.1524 21.5384C18.0004 21.8161 18.1191 22.0302 18.4368 22.0908C18.8421 22.168 19.2048 22.0757 19.4986 21.7757C19.6752 21.5954 19.8706 21.4238 20.0082 21.2153C20.4743 20.5072 21.1995 20.2598 21.9689 20.148C22.317 20.0976 22.7578 20.1178 23.043 20.2908C24.3168 21.0625 25.574 21.8673 26.7892 22.7269C27.5709 23.28 28.2694 23.9492 29.0786 24.6278C29.4976 24.1706 29.9008 23.7307 30.3213 23.2713C29.4499 21.829 28.5705 20.3723 27.6882 18.9098ZM18.2096 25.5509C18.0938 25.4117 18.0033 25.2004 17.873 25.1716C17.6732 25.1283 17.3541 25.1298 17.2455 25.2531C16.6679 25.9072 16.1273 26.5959 15.609 27.2983C15.5251 27.4115 15.5511 27.7028 15.643 27.8196C15.7306 27.9314 15.9868 27.987 16.1417 27.9509C16.3379 27.9062 16.5441 27.7771 16.6817 27.6264C17.1101 27.1583 17.5184 26.6709 17.9121 26.1733C18.0402 26.011 18.0974 25.7932 18.2096 25.5509ZM18.8841 26.8288C18.8298 26.8454 18.7104 26.8533 18.6279 26.9117C17.936 27.4007 17.3931 28.0201 17.0957 28.817C17.0414 28.9634 17.0949 29.2317 17.2028 29.3333C17.3135 29.4379 17.5611 29.4523 17.7333 29.4213C17.8831 29.3946 18.0388 29.2728 18.1459 29.1523C18.5353 28.7117 18.9116 28.2581 19.2786 27.7987C19.3647 27.6913 19.4233 27.5456 19.4494 27.4093C19.5109 27.074 19.2764 26.8201 18.8841 26.8288ZM20.7413 28.7009C20.6516 28.5884 20.572 28.3966 20.4359 28.3418C20.2955 28.2855 20.0241 28.2978 19.9445 28.3922C19.6166 28.7824 19.3206 29.2028 19.0542 29.6369C18.9232 29.8504 18.937 30.1115 19.2055 30.2571C19.453 30.3913 19.6825 30.3235 19.8439 30.11C20.1174 29.748 20.3737 29.3723 20.6306 28.998C20.6769 28.9324 20.69 28.8451 20.7413 28.7009ZM14.3858 26.3745C14.4416 26.4343 14.5342 26.6132 14.6717 26.6586C14.7883 26.6968 15.0047 26.6247 15.0922 26.5266C15.41 26.1682 15.6829 25.7716 15.9905 25.4045C16.1453 25.2199 16.209 25.0187 16.023 24.8723C15.8862 24.7641 15.6438 24.6891 15.4831 24.7302C15.0886 24.8319 14.3924 25.8574 14.3858 26.3745Z" fill="#B0905B"/>
</g>
</g>
</svg>
