<svg width="44" height="44" viewBox="0 0 44 44" fill="none" xmlns="http://www.w3.org/2000/svg">
<g id="Group 6028">
<path id="Star 2" d="M20.1268 1.10123C21.2431 0.299589 22.7569 0.299589 23.8732 1.10123C24.9148 1.84925 26.2462 2.08063 27.4824 1.72994C28.8115 1.3529 30.2324 1.86565 31.0015 2.99281C31.7226 4.04941 32.895 4.71655 34.1778 4.80445C35.5575 4.89898 36.7124 5.85983 37.0439 7.17555C37.3559 8.41379 38.2279 9.43806 39.4041 9.95435C40.6657 10.5081 41.4169 11.7983 41.2727 13.1454C41.1369 14.4148 41.6018 15.6737 42.5299 16.5576C43.5208 17.5014 43.7811 18.9652 43.1784 20.1837C42.6115 21.3297 42.6115 22.6703 43.1784 23.8163C43.7811 25.0348 43.5208 26.4986 42.5299 27.4424C41.6018 28.3263 41.1369 29.5852 41.2727 30.8546C41.4169 32.2017 40.6657 33.4919 39.4041 34.0456C38.2279 34.5619 37.3559 35.5862 37.0439 36.8244C36.7124 38.1402 35.5575 39.101 34.1778 39.1956C32.895 39.2834 31.7226 39.9506 31.0015 41.0072C30.2324 42.1343 28.8115 42.6471 27.4824 42.2701C26.2462 41.9194 24.9148 42.1508 23.8732 42.8988C22.7569 43.7004 21.2431 43.7004 20.1268 42.8988C19.0852 42.1508 17.7538 41.9194 16.5176 42.2701C15.1885 42.6471 13.7676 42.1343 12.9985 41.0072C12.2774 39.9506 11.105 39.2834 9.82217 39.1956C8.44247 39.101 7.28763 38.1402 6.95612 36.8244C6.64414 35.5862 5.77207 34.5619 4.5959 34.0456C3.33428 33.4919 2.58312 32.2017 2.72725 30.8546C2.86308 29.5852 2.39817 28.3263 1.47013 27.4424C0.479172 26.4986 0.218901 25.0348 0.821616 23.8163C1.3885 22.6703 1.3885 21.3297 0.821615 20.1837C0.218901 18.9652 0.479172 17.5014 1.47013 16.5576C2.39817 15.6737 2.86308 14.4148 2.72725 13.1454C2.58312 11.7983 3.33428 10.5081 4.59589 9.95435C5.77207 9.43806 6.64414 8.41379 6.95612 7.17555C7.28763 5.85983 8.44247 4.89898 9.82217 4.80445C11.105 4.71655 12.2774 4.04941 12.9985 2.99281C13.7676 1.86565 15.1885 1.3529 16.5176 1.72994C17.7538 2.08063 19.0852 1.84925 20.1268 1.10123Z" fill="#F8F5F0" stroke="#E7D4B5"/>
<g id="Group 36">
<path id="Icon" d="M25.6667 25.6667V16.6833C25.6667 15.6566 25.6667 15.1432 25.4669 14.751C25.2911 14.4061 25.0107 14.1256 24.6657 13.9498C24.2735 13.75 23.7601 13.75 22.7334 13.75H15.7667C14.7399 13.75 14.2266 13.75 13.8344 13.9498C13.4894 14.1256 13.209 14.4061 13.0332 14.751C12.8334 15.1432 12.8334 15.6566 12.8334 16.6833V22.7333C12.8334 23.7601 12.8334 24.2735 13.0332 24.6656C13.209 25.0106 13.4894 25.2911 13.8344 25.4668C14.2266 25.6667 14.7399 25.6667 15.7667 25.6667H25.6667ZM25.6667 25.6667H29.7C30.2134 25.6667 30.4701 25.6667 30.6662 25.5668C30.8387 25.4789 30.9789 25.3386 31.0668 25.1662C31.1667 24.9701 31.1667 24.7134 31.1667 24.2V21.6908C31.1667 21.4666 31.1667 21.3545 31.1414 21.249C31.1189 21.1555 31.0819 21.0661 31.0316 20.9841C30.9749 20.8916 30.8957 20.8123 30.7371 20.6538L28.8463 18.7629C28.6877 18.6044 28.6085 18.5251 28.516 18.4684C28.434 18.4182 28.3445 18.3811 28.251 18.3587C28.1455 18.3333 28.0334 18.3333 27.8092 18.3333H25.6667M19.25 27.9583C19.25 29.224 18.224 30.25 16.9584 30.25C15.6927 30.25 14.6667 29.224 14.6667 27.9583C14.6667 26.6927 15.6927 25.6667 16.9584 25.6667C18.224 25.6667 19.25 26.6927 19.25 27.9583ZM29.3334 27.9583C29.3334 29.224 28.3074 30.25 27.0417 30.25C25.7761 30.25 24.75 29.224 24.75 27.9583C24.75 26.6927 25.7761 25.6667 27.0417 25.6667C28.3074 25.6667 29.3334 26.6927 29.3334 27.9583Z" stroke="#B0905B" stroke-width="1.5" stroke-linecap="round" stroke-linejoin="round"/>
</g>
</g>
</svg>
