<svg width="32" height="32" viewBox="0 0 32 32" fill="none" xmlns="http://www.w3.org/2000/svg">
<g id="Group 6045">
<path id="Icon" d="M12.0003 16.0002L14.667 18.6669L20.667 12.6669M23.8686 6.66488C24.1431 7.32891 24.6701 7.85673 25.3337 8.1323L27.6606 9.09617C28.3247 9.37125 28.8523 9.89886 29.1274 10.5629C29.4024 11.227 29.4024 11.9732 29.1274 12.6373L28.1642 14.9626C27.889 15.627 27.8886 16.3739 28.1651 17.038L29.1266 19.3626C29.2629 19.6915 29.3331 20.0441 29.3332 20.4001C29.3332 20.7562 29.2631 21.1088 29.1269 21.4377C28.9906 21.7667 28.7909 22.0656 28.5391 22.3173C28.2873 22.569 27.9884 22.7687 27.6594 22.9048L25.3341 23.868C24.6701 24.1426 24.1423 24.6696 23.8668 25.3332L22.9029 27.6602C22.6279 28.3243 22.1003 28.8519 21.4362 29.127C20.7721 29.4021 20.026 29.4021 19.3619 29.127L17.0367 28.1638C16.3726 27.8894 15.6268 27.89 14.9631 28.1654L12.6362 29.1279C11.9725 29.4023 11.227 29.4021 10.5635 29.1272C9.89996 28.8524 9.37266 28.3254 9.09741 27.662L8.13328 25.3343C7.85873 24.6703 7.33172 24.1425 6.66812 23.8669L4.34121 22.903C3.67744 22.6281 3.15 22.1008 2.87484 21.4371C2.59967 20.7734 2.5993 20.0276 2.8738 19.3636L3.83694 17.0383C4.11133 16.3742 4.11077 15.6283 3.83539 14.9646L2.87362 12.6359C2.73726 12.307 2.66705 11.9544 2.66699 11.5984C2.66694 11.2423 2.73704 10.8897 2.87329 10.5608C3.00954 10.2318 3.20928 9.93294 3.46108 9.68121C3.71289 9.42947 4.01182 9.22983 4.34081 9.09367L6.66605 8.13049C7.32949 7.85616 7.85697 7.3298 8.13273 6.66695L9.09657 4.33995C9.37163 3.67586 9.89923 3.14825 10.5633 2.87318C11.2274 2.5981 11.9735 2.5981 12.6375 2.87318L14.9628 3.83636C15.6269 4.11075 16.3727 4.11019 17.0364 3.8348L19.3643 2.87467C20.0283 2.59975 20.7742 2.59981 21.4382 2.87483C22.1021 3.14984 22.6296 3.67731 22.9047 4.34122L23.8689 6.66891L23.8686 6.66488Z" stroke="#B0905B" stroke-width="1.5" stroke-linecap="round" stroke-linejoin="round"/>
</g>
</svg>
