<svg width="24" height="24" viewBox="0 0 24 24" fill="none" xmlns="http://www.w3.org/2000/svg">
<g id="Group 6107">
<g id="Icon">
<path d="M21.5796 7.20007C21.4716 6.76865 21.2517 6.37336 20.9421 6.05413C20.6324 5.73491 20.244 5.50305 19.8161 5.38198C18.2525 5.00018 11.9983 5.00018 11.9983 5.00018C11.9983 5.00018 5.74407 5.00018 4.18052 5.41834C3.75258 5.53941 3.36417 5.77127 3.05453 6.0905C2.74488 6.40972 2.52495 6.80501 2.41697 7.23643C2.13082 8.82322 1.99084 10.4329 1.99881 12.0453C1.98861 13.6698 2.12859 15.2917 2.41697 16.8905C2.53602 17.3085 2.76087 17.6888 3.0698 17.9945C3.37872 18.3002 3.76128 18.5211 4.18052 18.6358C5.74407 19.054 11.9983 19.054 11.9983 19.054C11.9983 19.054 18.2525 19.054 19.8161 18.6358C20.244 18.5148 20.6324 18.2829 20.9421 17.9637C21.2517 17.6445 21.4716 17.2492 21.5796 16.8178C21.8636 15.2429 22.0035 13.6455 21.9978 12.0453C22.008 10.4208 21.868 8.7988 21.5796 7.20007Z" stroke="#69573A" stroke-linecap="round" stroke-linejoin="round"/>
<path d="M9.74829 9.46552C9.74829 8.98823 9.74829 8.74959 9.84803 8.61636C9.93495 8.50026 10.068 8.42762 10.2127 8.41729C10.3787 8.40543 10.5794 8.53448 10.9809 8.79257L14.9237 11.3272C15.2721 11.5512 15.4463 11.6632 15.5065 11.8056C15.559 11.93 15.559 12.0704 15.5065 12.1948C15.4463 12.3372 15.2721 12.4492 14.9237 12.6731L10.9809 15.2078C10.5794 15.4659 10.3787 15.5949 10.2127 15.5831C10.068 15.5728 9.93495 15.5001 9.84803 15.384C9.74829 15.2508 9.74829 15.0121 9.74829 14.5349V9.46552Z" stroke="#69573A" stroke-linecap="round" stroke-linejoin="round"/>
</g>
</g>
</svg>
