<svg width="58" height="59" viewBox="0 0 58 59" fill="none" xmlns="http://www.w3.org/2000/svg">
<g id="icon">
<path id="Star 1" d="M26.4413 1.33582C27.9668 0.221394 30.0332 0.221394 31.5587 1.33582C32.8926 2.31023 34.5998 2.61271 36.1856 2.15508C37.9978 1.63214 39.9401 2.34139 40.9949 3.91372C41.916 5.28688 43.4167 6.1575 45.0629 6.27223C46.9438 6.40333 48.5284 7.73727 48.9843 9.57817C49.3822 11.1843 50.4954 12.5174 52.0028 13.1905C53.7265 13.9602 54.7615 15.7589 54.5631 17.6458C54.39 19.2916 54.982 20.9261 56.1687 22.0758C57.5272 23.392 57.8869 25.4386 57.0581 27.1431C56.3348 28.6305 56.3348 30.3695 57.0581 31.8569C57.8869 33.5614 57.5273 35.608 56.1687 36.9242C54.982 38.0739 54.39 39.7084 54.5631 41.3542C54.7615 43.2411 53.7264 45.0398 52.0028 45.8095C50.4954 46.4826 49.3822 47.8157 48.9843 49.4218C48.5284 51.2627 46.9438 52.5967 45.0629 52.7278C43.4167 52.8425 41.916 53.7131 40.9949 55.0863C39.9401 56.6586 37.9978 57.3679 36.1856 56.8449C34.5998 56.3873 32.8926 56.6898 31.5587 57.6642C30.0332 58.7786 27.9668 58.7786 26.4413 57.6642C25.1074 56.6898 23.4002 56.3873 21.8144 56.8449C20.0022 57.3679 18.0599 56.6586 17.0051 55.0863C16.084 53.7131 14.5833 52.8425 12.9371 52.7278C11.0562 52.5967 9.47162 51.2627 9.01565 49.4218C8.61783 47.8157 7.50457 46.4826 5.99717 45.8095C4.27355 45.0398 3.23845 43.2411 3.43692 41.3542C3.61003 39.7084 3.01797 38.0739 1.83125 36.9242C0.472748 35.608 0.11307 33.5614 0.941928 31.8569C1.66521 30.3695 1.66521 28.6305 0.941928 27.1431C0.113069 25.4386 0.472749 23.392 1.83125 22.0758C3.01797 20.9261 3.61003 19.2916 3.43692 17.6458C3.23845 15.7589 4.27355 13.9602 5.99717 13.1905C7.50457 12.5174 8.61783 11.1843 9.01565 9.57817C9.47162 7.73727 11.0562 6.40333 12.9371 6.27223C14.5833 6.1575 16.084 5.28688 17.0051 3.91372C18.0599 2.34139 20.0022 1.63214 21.8144 2.15508C23.4002 2.61271 25.1074 2.31023 26.4413 1.33582Z" fill="#F8F5F0" stroke="#E7D4B5"/>
<g id="Group 35">
<path id="Icon" d="M33 26V23L36 20L37 22L39 23L36 26H33ZM33 26L29 29.9999M39 30C39 35.5228 34.5228 40 29 40C23.4772 40 19 35.5228 19 30C19 24.4772 23.4772 20 29 20M34 30C34 32.7614 31.7614 35 29 35C26.2386 35 24 32.7614 24 30C24 27.2386 26.2386 25 29 25" stroke="#B0905B" stroke-width="1.5" stroke-linecap="round" stroke-linejoin="round"/>
</g>
</g>
</svg>
