<svg width="58" height="59" viewBox="0 0 58 59" fill="none" xmlns="http://www.w3.org/2000/svg">
<path d="M26.4413 1.33582C27.9668 0.221394 30.0332 0.221394 31.5587 1.33582C32.8926 2.31023 34.5998 2.61271 36.1856 2.15508C37.9978 1.63214 39.9401 2.34139 40.9949 3.91372C41.916 5.28688 43.4167 6.1575 45.0629 6.27223C46.9438 6.40333 48.5284 7.73727 48.9843 9.57817C49.3822 11.1843 50.4954 12.5174 52.0028 13.1905C53.7265 13.9602 54.7615 15.7589 54.5631 17.6458C54.39 19.2916 54.982 20.9261 56.1687 22.0758C57.5272 23.392 57.8869 25.4386 57.0581 27.1431C56.3348 28.6305 56.3348 30.3695 57.0581 31.8569C57.8869 33.5614 57.5273 35.608 56.1687 36.9242C54.982 38.0739 54.39 39.7084 54.5631 41.3542C54.7615 43.2411 53.7264 45.0398 52.0028 45.8095C50.4954 46.4826 49.3822 47.8157 48.9843 49.4218C48.5284 51.2627 46.9438 52.5967 45.0629 52.7278C43.4167 52.8425 41.916 53.7131 40.9949 55.0863C39.9401 56.6586 37.9978 57.3679 36.1856 56.8449C34.5998 56.3873 32.8926 56.6898 31.5587 57.6642C30.0332 58.7786 27.9668 58.7786 26.4413 57.6642C25.1074 56.6898 23.4002 56.3873 21.8144 56.8449C20.0022 57.3679 18.0599 56.6586 17.0051 55.0863C16.084 53.7131 14.5833 52.8425 12.9371 52.7278C11.0562 52.5967 9.47162 51.2627 9.01565 49.4218C8.61783 47.8157 7.50457 46.4826 5.99717 45.8095C4.27355 45.0398 3.23845 43.2411 3.43692 41.3542C3.61003 39.7084 3.01797 38.0739 1.83125 36.9242C0.472748 35.608 0.11307 33.5614 0.941928 31.8569C1.66521 30.3695 1.66521 28.6305 0.941928 27.1431C0.113069 25.4386 0.472749 23.392 1.83125 22.0758C3.01797 20.9261 3.61003 19.2916 3.43692 17.6458C3.23845 15.7589 4.27355 13.9602 5.99717 13.1905C7.50457 12.5174 8.61783 11.1843 9.01565 9.57817C9.47162 7.73727 11.0562 6.40333 12.9371 6.27223C14.5833 6.1575 16.084 5.28688 17.0051 3.91372C18.0599 2.34139 20.0022 1.63214 21.8144 2.15508C23.4002 2.61271 25.1074 2.31023 26.4413 1.33582Z" fill="#F8F5F0" stroke="#E7D4B5"/>
<path d="M23.0944 29.2288C23.0322 28.8282 23 28.4179 23 28C23 23.5817 26.6052 20 31.0526 20C35.4999 20 39.1052 23.5817 39.1052 28C39.1052 28.9981 38.9213 29.9535 38.5852 30.8345C38.5154 31.0175 38.4804 31.109 38.4646 31.1804C38.4489 31.2512 38.4428 31.301 38.4411 31.3735C38.4394 31.4466 38.4493 31.5272 38.4692 31.6883L38.8717 34.9585C38.9153 35.3125 38.9371 35.4895 38.8782 35.6182C38.8266 35.731 38.735 35.8205 38.6211 35.8695C38.4911 35.9254 38.3146 35.8995 37.9617 35.8478L34.7765 35.3809C34.6101 35.3565 34.527 35.3443 34.4512 35.3448C34.3763 35.3452 34.3245 35.3507 34.2511 35.3661C34.177 35.3817 34.0823 35.4172 33.893 35.4881C33.0097 35.819 32.0524 36 31.0526 36C30.6344 36 30.2237 35.9683 29.8227 35.9073M24.6316 40C27.5965 40 30 37.5376 30 34.5C30 31.4624 27.5965 29 24.6316 29C21.6667 29 19.2632 31.4624 19.2632 34.5C19.2632 35.1106 19.3603 35.6979 19.5395 36.2467C19.6153 36.4787 19.6532 36.5947 19.6657 36.6739C19.6786 36.7567 19.6809 36.8031 19.6761 36.8867C19.6714 36.9668 19.6514 37.0573 19.6113 37.2383L19 40L21.9948 39.591C22.1583 39.5687 22.24 39.5575 22.3114 39.558C22.3865 39.5585 22.4264 39.5626 22.5001 39.5773C22.5701 39.5912 22.6742 39.6279 22.8823 39.7014C23.4306 39.8949 24.0191 40 24.6316 40Z" stroke="#B0905B" stroke-width="1.5" stroke-linecap="round" stroke-linejoin="round"/>
</svg>
