<svg width="58" height="59" viewBox="0 0 58 59" fill="none" xmlns="http://www.w3.org/2000/svg">
<path d="M26.4413 1.33582C27.9668 0.221394 30.0332 0.221394 31.5587 1.33582C32.8926 2.31023 34.5998 2.61271 36.1856 2.15508C37.9978 1.63214 39.9401 2.34139 40.9949 3.91372C41.916 5.28688 43.4167 6.1575 45.0629 6.27223C46.9438 6.40333 48.5284 7.73727 48.9843 9.57817C49.3822 11.1843 50.4954 12.5174 52.0028 13.1905C53.7265 13.9602 54.7615 15.7589 54.5631 17.6458C54.39 19.2916 54.982 20.9261 56.1687 22.0758C57.5272 23.392 57.8869 25.4386 57.0581 27.1431C56.3348 28.6305 56.3348 30.3695 57.0581 31.8569C57.8869 33.5614 57.5273 35.608 56.1687 36.9242C54.982 38.0739 54.39 39.7084 54.5631 41.3542C54.7615 43.2411 53.7264 45.0398 52.0028 45.8095C50.4954 46.4826 49.3822 47.8157 48.9843 49.4218C48.5284 51.2627 46.9438 52.5967 45.0629 52.7278C43.4167 52.8425 41.916 53.7131 40.9949 55.0863C39.9401 56.6586 37.9978 57.3679 36.1856 56.8449C34.5998 56.3873 32.8926 56.6898 31.5587 57.6642C30.0332 58.7786 27.9668 58.7786 26.4413 57.6642C25.1074 56.6898 23.4002 56.3873 21.8144 56.8449C20.0022 57.3679 18.0599 56.6586 17.0051 55.0863C16.084 53.7131 14.5833 52.8425 12.9371 52.7278C11.0562 52.5967 9.47162 51.2627 9.01565 49.4218C8.61783 47.8157 7.50457 46.4826 5.99717 45.8095C4.27355 45.0398 3.23845 43.2411 3.43692 41.3542C3.61003 39.7084 3.01797 38.0739 1.83125 36.9242C0.472748 35.608 0.11307 33.5614 0.941928 31.8569C1.66521 30.3695 1.66521 28.6305 0.941928 27.1431C0.113069 25.4386 0.472749 23.392 1.83125 22.0758C3.01797 20.9261 3.61003 19.2916 3.43692 17.6458C3.23845 15.7589 4.27355 13.9602 5.99717 13.1905C7.50457 12.5174 8.61783 11.1843 9.01565 9.57817C9.47162 7.73727 11.0562 6.40333 12.9371 6.27223C14.5833 6.1575 16.084 5.28688 17.0051 3.91372C18.0599 2.34139 20.0022 1.63214 21.8144 2.15508C23.4002 2.61271 25.1074 2.31023 26.4413 1.33582Z" fill="#F8F5F0" stroke="#E7D4B5"/>
<path d="M33 34V24.2C33 23.0799 33 22.5198 32.782 22.092C32.5903 21.7157 32.2843 21.4097 31.908 21.218C31.4802 21 30.9201 21 29.8 21H22.2C21.0799 21 20.5198 21 20.092 21.218C19.7157 21.4097 19.4097 21.7157 19.218 22.092C19 22.5198 19 23.0799 19 24.2V30.8C19 31.9201 19 32.4802 19.218 32.908C19.4097 33.2843 19.7157 33.5903 20.092 33.782C20.5198 34 21.0799 34 22.2 34H33ZM33 34H37.4C37.9601 34 38.2401 34 38.454 33.891C38.6422 33.7951 38.7951 33.6422 38.891 33.454C39 33.2401 39 32.9601 39 32.4V29.6627C39 29.4182 39 29.2959 38.9724 29.1808C38.9479 29.0787 38.9075 28.9812 38.8526 28.8917C38.7908 28.7908 38.7043 28.7043 38.5314 28.5314L36.4686 26.4686C36.2957 26.2957 36.2092 26.2092 36.1083 26.1474C36.0188 26.0925 35.9213 26.0521 35.8192 26.0276C35.7041 26 35.5818 26 35.3373 26H33M26 36.5C26 37.8807 24.8807 39 23.5 39C22.1193 39 21 37.8807 21 36.5C21 35.1193 22.1193 34 23.5 34C24.8807 34 26 35.1193 26 36.5ZM37 36.5C37 37.8807 35.8807 39 34.5 39C33.1193 39 32 37.8807 32 36.5C32 35.1193 33.1193 34 34.5 34C35.8807 34 37 35.1193 37 36.5Z" stroke="#B0905B" stroke-width="1.5" stroke-linecap="round" stroke-linejoin="round"/>
</svg>
